<svg width="314" height="143" viewBox="0 0 314 143" fill="none" xmlns="http://www.w3.org/2000/svg">
<g clip-path="url(#clip0_161_97)" filter="url(#filter0_d_161_97)">
<path d="M52.7861 53.3265C60.8957 67.767 76.0499 66.1392 89.1756 59.4931C93.5054 57.3007 98.3111 54.3365 103.341 54.7671C97.8931 49.2018 92.2166 47.4488 86.8779 47.6291C81.1943 47.8208 75.8574 50.1978 71.5767 52.5056C69.9795 53.3668 68.4715 54.179 67.0259 54.8336C65.5615 55.4961 64.1667 55.9932 62.82 56.2059C60.8975 56.5096 59.1533 56.3109 57.6275 55.7184C55.992 55.0839 54.6114 53.9987 53.533 52.5975C52.9421 51.8291 52.4456 50.9627 52.0526 50.0236C51.6613 49.088 51.3743 48.0789 51.1997 47.0217C51.0268 45.9741 50.9644 44.8793 51.0196 43.7608C51.074 42.6703 51.2389 41.5597 51.5232 40.4526C52.3048 37.4096 53.9804 34.343 56.7086 31.7192C59.8218 28.7252 62.9866 27.3389 66.6827 26.0856C67.7612 25.7198 68.877 26.5722 68.7647 27.6863C68.1658 33.6166 74.0374 35.4483 80.9715 38.2253C81.8583 38.5806 83.2166 39.1783 84.2522 39.6404C84.8066 39.8881 84.7825 40.667 84.2139 40.8814C81.8164 41.7864 77.1221 43.4195 74.549 43.3862C71.4394 43.3451 69.5802 44.0067 70.4243 46.2174C70.6453 46.7951 70.0071 47.3377 69.4554 47.0419C65.0802 44.6972 67.3806 40.3843 75.7986 39.9047C73.3556 38.8677 71.0312 37.7842 69.1658 36.4723C66.9528 34.9162 65.3806 33.0433 64.9956 30.5666C62.3948 31.7148 60.3387 33.1912 58.7701 34.8418C56.869 36.8416 55.6818 39.0987 55.1087 41.3322C54.8833 42.21 54.7513 43.0799 54.7086 43.9227C54.664 44.7918 54.7112 45.6363 54.8431 46.4371V46.4389C54.9697 47.2046 55.1756 47.9337 55.4546 48.6076C55.7291 49.2709 56.074 49.8774 56.4831 50.4087C57.1497 51.276 58.0018 51.9446 59.008 52.3332C59.9519 52.6973 61.0383 52.8181 62.2442 52.6273C64.2629 52.3087 66.8636 50.9075 69.7923 49.3287L69.8013 49.3243C70.4064 48.9988 71.0098 48.6872 71.6096 48.3931C78.3868 45.0683 85.5348 43.4107 92.115 44.5686C100.086 45.9715 105.062 50.8156 108.807 57.1126C109.44 58.1786 108.436 59.4651 107.22 59.15C100.901 57.5143 98.5927 58.8017 90.869 62.712C78.7469 68.8496 56.0276 73.5879 52.7888 53.3248" fill="url(#paint0_linear_161_97)"/>
</g>
<g filter="url(#filter1_d_161_97)">
<path d="M123.588 55V54.79H124.47C124.666 54.79 124.841 54.762 124.995 54.706C125.163 54.65 125.296 54.531 125.394 54.349C125.492 54.167 125.541 53.894 125.541 53.53V41.497C125.541 41.119 125.492 40.839 125.394 40.657C125.296 40.475 125.163 40.356 124.995 40.3C124.841 40.244 124.666 40.216 124.47 40.216H123.588V40.006H130.35C131.68 40.006 132.765 40.153 133.605 40.447C134.459 40.741 135.089 41.182 135.495 41.77C135.901 42.344 136.104 43.051 136.104 43.891C136.104 44.633 135.957 45.263 135.663 45.781C135.383 46.299 135.005 46.726 134.529 47.062C134.067 47.398 133.556 47.664 132.996 47.86L135.327 51.829C135.719 52.501 136.041 53.04 136.293 53.446C136.559 53.838 136.783 54.132 136.965 54.328C137.147 54.51 137.308 54.636 137.448 54.706C137.588 54.762 137.735 54.79 137.889 54.79H137.931V55H137.238C136.608 55 136.055 54.972 135.579 54.916C135.103 54.86 134.683 54.762 134.319 54.622C133.955 54.482 133.626 54.279 133.332 54.013C133.052 53.733 132.793 53.376 132.555 52.942L129.846 47.986H128.859V53.53C128.859 53.894 128.908 54.167 129.006 54.349C129.104 54.531 129.237 54.65 129.405 54.706C129.573 54.762 129.748 54.79 129.93 54.79H130.833V55H123.588ZM130.035 47.776C130.637 47.776 131.12 47.65 131.484 47.398C131.862 47.132 132.135 46.719 132.303 46.159C132.485 45.599 132.576 44.878 132.576 43.996C132.576 43.114 132.485 42.4 132.303 41.854C132.121 41.294 131.841 40.881 131.463 40.615C131.085 40.349 130.595 40.216 129.993 40.216H128.859V47.776H130.035ZM138.205 55V54.79H138.457C138.667 54.79 138.884 54.762 139.108 54.706C139.346 54.636 139.542 54.503 139.696 54.307C139.864 54.111 139.948 53.817 139.948 53.425V45.235C139.948 44.857 139.864 44.577 139.696 44.395C139.528 44.213 139.325 44.094 139.087 44.038C138.863 43.982 138.653 43.954 138.457 43.954H138.205V43.744H143.14V53.425C143.14 53.817 143.217 54.111 143.371 54.307C143.539 54.503 143.742 54.636 143.98 54.706C144.218 54.762 144.435 54.79 144.631 54.79H144.883V55H138.205ZM141.439 41.854C141.033 41.854 140.683 41.735 140.389 41.497C140.109 41.245 139.969 40.86 139.969 40.342C139.969 39.81 140.116 39.425 140.41 39.187C140.704 38.949 141.054 38.83 141.46 38.83C141.852 38.83 142.195 38.949 142.489 39.187C142.783 39.425 142.93 39.81 142.93 40.342C142.93 40.86 142.783 41.245 142.489 41.497C142.195 41.735 141.845 41.854 141.439 41.854ZM145.461 55V54.79H145.755C146.063 54.79 146.329 54.755 146.553 54.685C146.791 54.601 147.036 54.44 147.288 54.202C147.54 53.964 147.855 53.607 148.233 53.131L150.921 49.75L147.456 45.067C147.274 44.815 147.085 44.612 146.889 44.458C146.707 44.29 146.518 44.164 146.322 44.08C146.14 43.996 145.937 43.954 145.713 43.954H145.671V43.744H152.454V43.954H151.971C151.495 43.954 151.173 44.017 151.005 44.143C150.837 44.255 150.753 44.395 150.753 44.563C150.753 44.703 150.781 44.85 150.837 45.004C150.907 45.144 151.019 45.319 151.173 45.529L153.168 48.259L155.247 45.76C155.401 45.564 155.527 45.368 155.625 45.172C155.723 44.962 155.772 44.766 155.772 44.584C155.772 44.332 155.674 44.164 155.478 44.08C155.282 43.996 155.023 43.954 154.701 43.954H153.882V43.744H158.208V43.954H158.019C157.753 43.954 157.515 43.989 157.305 44.059C157.095 44.129 156.885 44.262 156.675 44.458C156.465 44.654 156.206 44.934 155.898 45.298L153.315 48.448L157.158 53.677C157.354 53.943 157.543 54.16 157.725 54.328C157.907 54.482 158.082 54.601 158.25 54.685C158.418 54.755 158.579 54.79 158.733 54.79H158.796V55H151.971V54.79H152.475C152.895 54.79 153.217 54.734 153.441 54.622C153.665 54.496 153.777 54.321 153.777 54.097C153.777 53.943 153.735 53.775 153.651 53.593C153.581 53.397 153.385 53.082 153.063 52.648L151.068 49.939L148.632 52.984C148.478 53.18 148.352 53.376 148.254 53.572C148.156 53.768 148.107 53.964 148.107 54.16C148.107 54.412 148.205 54.58 148.401 54.664C148.597 54.748 148.856 54.79 149.178 54.79H149.892V55H145.461ZM165.338 55.21C163.518 55.21 162.139 54.706 161.201 53.698C160.263 52.676 159.794 51.255 159.794 49.435C159.794 47.461 160.249 45.977 161.159 44.983C162.069 43.975 163.35 43.471 165.002 43.471C166.528 43.471 167.725 43.898 168.593 44.752C169.475 45.606 169.916 46.866 169.916 48.532V49.036H163.028C163.028 50.45 163.119 51.598 163.301 52.48C163.497 53.348 163.798 53.985 164.204 54.391C164.624 54.783 165.163 54.979 165.821 54.979C166.311 54.979 166.752 54.874 167.144 54.664C167.55 54.454 167.886 54.118 168.152 53.656C168.432 53.194 168.614 52.578 168.698 51.808C168.978 51.864 169.174 51.983 169.286 52.165C169.412 52.347 169.475 52.557 169.475 52.795C169.475 53.187 169.321 53.572 169.013 53.95C168.705 54.314 168.243 54.615 167.627 54.853C167.025 55.091 166.262 55.21 165.338 55.21ZM166.724 48.826C166.724 47.552 166.675 46.544 166.577 45.802C166.479 45.046 166.304 44.507 166.052 44.185C165.8 43.849 165.45 43.681 165.002 43.681C164.554 43.681 164.183 43.849 163.889 44.185C163.595 44.507 163.378 45.046 163.238 45.802C163.112 46.544 163.042 47.552 163.028 48.826H166.724ZM171.224 55V54.79H171.413C171.623 54.79 171.84 54.762 172.064 54.706C172.302 54.636 172.498 54.503 172.652 54.307C172.82 54.111 172.904 53.817 172.904 53.425V45.235C172.904 44.857 172.82 44.577 172.652 44.395C172.484 44.213 172.281 44.094 172.043 44.038C171.819 43.982 171.609 43.954 171.413 43.954H171.329V43.744H176.096V45.55H176.138C176.292 45.088 176.495 44.71 176.747 44.416C176.999 44.108 177.314 43.877 177.692 43.723C178.084 43.569 178.539 43.492 179.057 43.492C179.841 43.492 180.436 43.653 180.842 43.975C181.262 44.297 181.472 44.745 181.472 45.319C181.472 45.921 181.234 46.39 180.758 46.726C180.282 47.062 179.631 47.23 178.805 47.23C178.805 46.516 178.756 45.956 178.658 45.55C178.56 45.144 178.42 44.857 178.238 44.689C178.07 44.521 177.853 44.437 177.587 44.437C177.377 44.437 177.181 44.493 176.999 44.605C176.817 44.717 176.656 44.906 176.516 45.172C176.39 45.424 176.285 45.767 176.201 46.201C176.131 46.621 176.096 47.153 176.096 47.797V53.425C176.096 53.817 176.173 54.111 176.327 54.307C176.495 54.503 176.698 54.636 176.936 54.706C177.174 54.762 177.391 54.79 177.587 54.79H178.238V55H171.224ZM186.597 55V54.79H187.458C187.724 54.79 187.948 54.741 188.13 54.643C188.312 54.545 188.473 54.384 188.613 54.16C188.767 53.936 188.914 53.635 189.054 53.257L193.905 40.006H195.963L200.667 53.278C200.807 53.656 200.947 53.957 201.087 54.181C201.241 54.405 201.409 54.566 201.591 54.664C201.773 54.748 201.997 54.79 202.263 54.79H202.326V55H195.396V54.79H196.53C196.852 54.79 197.09 54.741 197.244 54.643C197.412 54.531 197.496 54.356 197.496 54.118C197.496 54.034 197.482 53.943 197.454 53.845C197.44 53.733 197.419 53.614 197.391 53.488C197.363 53.348 197.321 53.201 197.265 53.047L196.068 49.519H190.65L189.453 52.774C189.383 52.956 189.32 53.131 189.264 53.299C189.222 53.453 189.187 53.593 189.159 53.719C189.131 53.845 189.117 53.964 189.117 54.076C189.117 54.342 189.201 54.531 189.369 54.643C189.537 54.741 189.796 54.79 190.146 54.79H191.637V55H186.597ZM190.734 49.309H196.005L194.703 45.382C194.591 45.046 194.458 44.647 194.304 44.185C194.164 43.709 194.024 43.233 193.884 42.757C193.758 42.267 193.653 41.847 193.569 41.497C193.485 41.749 193.387 42.036 193.275 42.358C193.163 42.68 193.044 43.016 192.918 43.366C192.792 43.716 192.666 44.052 192.54 44.374C192.428 44.696 192.323 44.983 192.225 45.235L190.734 49.309ZM206.87 60.04C205.134 60.04 203.881 59.823 203.111 59.389C202.355 58.955 201.977 58.353 201.977 57.583C201.977 57.163 202.096 56.799 202.334 56.491C202.572 56.183 202.957 55.931 203.489 55.735C204.021 55.553 204.735 55.441 205.631 55.399C204.875 55.273 204.287 55 203.867 54.58C203.447 54.16 203.237 53.663 203.237 53.089C203.237 52.529 203.433 52.06 203.825 51.682C204.217 51.304 204.763 50.996 205.463 50.758C204.693 50.52 204.084 50.114 203.636 49.54C203.202 48.952 202.985 48.224 202.985 47.356C202.985 46.124 203.342 45.172 204.056 44.5C204.77 43.814 205.876 43.471 207.374 43.471C207.92 43.471 208.424 43.548 208.886 43.702C209.362 43.842 209.775 44.052 210.125 44.332C210.377 43.996 210.608 43.73 210.818 43.534C211.028 43.324 211.245 43.177 211.469 43.093C211.693 42.995 211.931 42.946 212.183 42.946C212.631 42.946 212.974 43.058 213.212 43.282C213.45 43.492 213.569 43.779 213.569 44.143C213.569 44.423 213.464 44.696 213.254 44.962C213.044 45.214 212.652 45.34 212.078 45.34C212.078 44.948 211.987 44.647 211.805 44.437C211.623 44.213 211.385 44.101 211.091 44.101C210.937 44.101 210.79 44.136 210.65 44.206C210.524 44.262 210.405 44.346 210.293 44.458C210.713 44.808 211.035 45.228 211.259 45.718C211.497 46.208 211.616 46.754 211.616 47.356C211.616 48.42 211.273 49.302 210.587 50.002C209.901 50.688 208.83 51.031 207.374 51.031C207.066 51.031 206.772 51.017 206.492 50.989C206.212 50.947 205.946 50.891 205.694 50.821C205.428 50.961 205.246 51.108 205.148 51.262C205.05 51.416 205.001 51.591 205.001 51.787C205.001 52.095 205.113 52.326 205.337 52.48C205.561 52.634 205.911 52.711 206.387 52.711H208.928C209.866 52.711 210.629 52.837 211.217 53.089C211.805 53.341 212.239 53.712 212.519 54.202C212.813 54.678 212.96 55.252 212.96 55.924C212.96 57.212 212.463 58.22 211.469 58.948C210.475 59.676 208.942 60.04 206.87 60.04ZM207.122 59.83C207.822 59.83 208.438 59.739 208.97 59.557C209.502 59.389 209.915 59.116 210.209 58.738C210.503 58.374 210.65 57.891 210.65 57.289C210.65 56.715 210.496 56.267 210.188 55.945C209.894 55.637 209.411 55.483 208.739 55.483H206.597C206.093 55.483 205.68 55.56 205.358 55.714C205.05 55.882 204.819 56.12 204.665 56.428C204.511 56.736 204.434 57.114 204.434 57.562C204.434 58.08 204.532 58.507 204.728 58.843C204.938 59.179 205.239 59.424 205.631 59.578C206.037 59.746 206.534 59.83 207.122 59.83ZM207.311 50.821C207.661 50.821 207.941 50.709 208.151 50.485C208.361 50.261 208.508 49.897 208.592 49.393C208.69 48.889 208.739 48.21 208.739 47.356C208.739 46.446 208.69 45.725 208.592 45.193C208.508 44.661 208.361 44.276 208.151 44.038C207.941 43.8 207.654 43.681 207.29 43.681C206.94 43.681 206.653 43.8 206.429 44.038C206.219 44.276 206.065 44.668 205.967 45.214C205.883 45.746 205.841 46.474 205.841 47.398C205.841 48.238 205.883 48.91 205.967 49.414C206.065 49.918 206.219 50.282 206.429 50.506C206.653 50.716 206.947 50.821 207.311 50.821ZM220.196 55.21C218.376 55.21 216.997 54.706 216.059 53.698C215.121 52.676 214.652 51.255 214.652 49.435C214.652 47.461 215.107 45.977 216.017 44.983C216.927 43.975 218.208 43.471 219.86 43.471C221.386 43.471 222.583 43.898 223.451 44.752C224.333 45.606 224.774 46.866 224.774 48.532V49.036H217.886C217.886 50.45 217.977 51.598 218.159 52.48C218.355 53.348 218.656 53.985 219.062 54.391C219.482 54.783 220.021 54.979 220.679 54.979C221.169 54.979 221.61 54.874 222.002 54.664C222.408 54.454 222.744 54.118 223.01 53.656C223.29 53.194 223.472 52.578 223.556 51.808C223.836 51.864 224.032 51.983 224.144 52.165C224.27 52.347 224.333 52.557 224.333 52.795C224.333 53.187 224.179 53.572 223.871 53.95C223.563 54.314 223.101 54.615 222.485 54.853C221.883 55.091 221.12 55.21 220.196 55.21ZM221.582 48.826C221.582 47.552 221.533 46.544 221.435 45.802C221.337 45.046 221.162 44.507 220.91 44.185C220.658 43.849 220.308 43.681 219.86 43.681C219.412 43.681 219.041 43.849 218.747 44.185C218.453 44.507 218.236 45.046 218.096 45.802C217.97 46.544 217.9 47.552 217.886 48.826H221.582ZM226.019 55V54.79H226.271C226.481 54.79 226.698 54.762 226.922 54.706C227.16 54.636 227.356 54.503 227.51 54.307C227.678 54.111 227.762 53.817 227.762 53.425V45.235C227.762 44.857 227.678 44.577 227.51 44.395C227.342 44.213 227.139 44.094 226.901 44.038C226.677 43.982 226.467 43.954 226.271 43.954H226.019V43.744H230.954V45.655H230.996C231.164 45.025 231.402 44.556 231.71 44.248C232.018 43.94 232.375 43.737 232.781 43.639C233.187 43.527 233.593 43.471 233.999 43.471C235.231 43.471 236.148 43.793 236.75 44.437C237.352 45.081 237.653 46.11 237.653 47.524V53.299C237.653 53.733 237.702 54.055 237.8 54.265C237.912 54.475 238.073 54.615 238.283 54.685C238.493 54.755 238.752 54.79 239.06 54.79H239.123V55H234.461V46.831C234.461 45.921 234.342 45.242 234.104 44.794C233.866 44.332 233.46 44.101 232.886 44.101C232.396 44.101 232.004 44.269 231.71 44.605C231.43 44.941 231.234 45.41 231.122 46.012C231.01 46.614 230.954 47.307 230.954 48.091V53.425C230.954 53.817 231.031 54.111 231.185 54.307C231.353 54.503 231.556 54.636 231.794 54.706C232.032 54.762 232.249 54.79 232.445 54.79H232.697V55H226.019ZM245.885 55.21C244.849 55.21 243.932 55.028 243.134 54.664C242.35 54.286 241.741 53.677 241.307 52.837C240.873 51.983 240.656 50.842 240.656 49.414C240.656 47.902 240.88 46.719 241.328 45.865C241.776 44.997 242.392 44.381 243.176 44.017C243.974 43.653 244.884 43.471 245.906 43.471C246.76 43.471 247.488 43.569 248.09 43.765C248.692 43.947 249.154 44.213 249.476 44.563C249.798 44.899 249.959 45.291 249.959 45.739C249.959 46.005 249.882 46.271 249.728 46.537C249.588 46.803 249.322 47.027 248.93 47.209C248.538 47.377 247.978 47.461 247.25 47.461C247.25 46.495 247.208 45.739 247.124 45.193C247.04 44.647 246.886 44.262 246.662 44.038C246.452 43.8 246.158 43.681 245.78 43.681C245.318 43.681 244.947 43.856 244.667 44.206C244.387 44.556 244.184 45.144 244.058 45.97C243.946 46.796 243.89 47.937 243.89 49.393C243.89 50.737 243.974 51.822 244.142 52.648C244.324 53.46 244.604 54.055 244.982 54.433C245.374 54.797 245.878 54.979 246.494 54.979C246.984 54.979 247.425 54.881 247.817 54.685C248.209 54.475 248.538 54.139 248.804 53.677C249.07 53.215 249.245 52.599 249.329 51.829C249.553 51.899 249.728 52.032 249.854 52.228C249.98 52.424 250.043 52.648 250.043 52.9C250.043 53.25 249.896 53.607 249.602 53.971C249.322 54.321 248.874 54.615 248.258 54.853C247.642 55.091 246.851 55.21 245.885 55.21ZM251.394 59.83C252.346 59.83 253.123 59.746 253.725 59.578C254.341 59.424 254.838 59.179 255.216 58.843C255.594 58.521 255.916 58.101 256.182 57.583C256.448 57.079 256.728 56.477 257.022 55.777L251.919 44.962C251.807 44.71 251.695 44.514 251.583 44.374C251.485 44.22 251.38 44.115 251.268 44.059C251.156 43.989 251.023 43.954 250.869 43.954H250.743V43.744H256.77L256.791 43.954H256.371C255.965 43.954 255.664 44.003 255.468 44.101C255.272 44.199 255.174 44.367 255.174 44.605C255.174 44.731 255.195 44.871 255.237 45.025C255.279 45.179 255.342 45.354 255.426 45.55L257.484 50.275C257.61 50.541 257.715 50.772 257.799 50.968C257.883 51.164 257.953 51.332 258.009 51.472C258.065 51.598 258.114 51.724 258.156 51.85C258.212 51.962 258.268 52.081 258.324 52.207C258.436 51.913 258.541 51.64 258.639 51.388C258.737 51.122 258.821 50.884 258.891 50.674L260.676 45.844C260.76 45.62 260.823 45.424 260.865 45.256C260.907 45.074 260.928 44.913 260.928 44.773C260.928 44.465 260.816 44.255 260.592 44.143C260.382 44.017 260.032 43.954 259.542 43.954H258.66V43.744H262.902V43.954H262.86C262.552 43.954 262.286 44.003 262.062 44.101C261.838 44.199 261.642 44.367 261.474 44.605C261.306 44.843 261.145 45.172 260.991 45.592L257.505 55.084C257.141 56.092 256.791 56.918 256.455 57.562C256.119 58.206 255.741 58.71 255.321 59.074C254.901 59.438 254.383 59.69 253.767 59.83C253.151 59.97 252.381 60.04 251.457 60.04H251.394V59.83Z" fill="white"/>
</g>
<defs>
<filter id="filter0_d_161_97" x="0" y="-1" width="160" height="144" filterUnits="userSpaceOnUse" color-interpolation-filters="sRGB">
<feFlood flood-opacity="0" result="BackgroundImageFix"/>
<feColorMatrix in="SourceAlpha" type="matrix" values="0 0 0 0 0 0 0 0 0 0 0 0 0 0 0 0 0 0 127 0" result="hardAlpha"/>
<feOffset dy="24"/>
<feGaussianBlur stdDeviation="25.5"/>
<feComposite in2="hardAlpha" operator="out"/>
<feColorMatrix type="matrix" values="0 0 0 0 0 0 0 0 0 0 0 0 0 0 0 0 0 0 0.4 0"/>
<feBlend mode="normal" in2="BackgroundImageFix" result="effect1_dropShadow_161_97"/>
<feBlend mode="normal" in="SourceGraphic" in2="effect1_dropShadow_161_97" result="shape"/>
</filter>
<filter id="filter1_d_161_97" x="72" y="3" width="253" height="136" filterUnits="userSpaceOnUse" color-interpolation-filters="sRGB">
<feFlood flood-opacity="0" result="BackgroundImageFix"/>
<feColorMatrix in="SourceAlpha" type="matrix" values="0 0 0 0 0 0 0 0 0 0 0 0 0 0 0 0 0 0 127 0" result="hardAlpha"/>
<feOffset dy="24"/>
<feGaussianBlur stdDeviation="25.5"/>
<feComposite in2="hardAlpha" operator="out"/>
<feColorMatrix type="matrix" values="0 0 0 0 0 0 0 0 0 0 0 0 0 0 0 0 0 0 0.4 0"/>
<feBlend mode="normal" in2="BackgroundImageFix" result="effect1_dropShadow_161_97"/>
<feBlend mode="normal" in="SourceGraphic" in2="effect1_dropShadow_161_97" result="shape"/>
</filter>
<linearGradient id="paint0_linear_161_97" x1="102.5" y1="32" x2="45.5001" y2="65.5" gradientUnits="userSpaceOnUse">
<stop stop-color="#9CA7BC"/>
<stop offset="0.184641" stop-color="#E0E4EA"/>
<stop offset="0.372152" stop-color="#B2BBCB"/>
<stop offset="0.564872" stop-color="#E9EBF0"/>
<stop offset="0.788843" stop-color="#A3AEC1"/>
<stop offset="1" stop-color="white"/>
</linearGradient>
<clipPath id="clip0_161_97">
<rect width="58" height="42" fill="white" transform="translate(51 26)"/>
</clipPath>
</defs>
</svg>
