<svg width="223" height="42" viewBox="0 0 223 42" fill="none" xmlns="http://www.w3.org/2000/svg">
<g clip-path="url(#clip0_161_97)">
<path d="M1.78611 27.3265C9.89573 41.767 25.0499 40.1392 38.1756 33.4931C42.5054 31.3007 47.3111 28.3365 52.3414 28.7671C46.8931 23.2018 41.2166 21.4488 35.8779 21.6291C30.1943 21.8208 24.8574 24.1978 20.5767 26.5056C18.9795 27.3668 17.4715 28.179 16.0259 28.8336C14.5615 29.4961 13.1667 29.9932 11.82 30.2059C9.89752 30.5096 8.15331 30.3109 6.62746 29.7184C4.99199 29.0839 3.61142 27.9987 2.53299 26.5975C1.94208 25.8291 1.44565 24.9627 1.0526 24.0236C0.661332 23.088 0.374344 22.0789 0.199656 21.0217C0.0267506 19.9741 -0.035638 18.8793 0.0196204 17.7608C0.0739876 16.6703 0.238872 15.5597 0.523185 14.4526C1.30483 11.4096 2.98041 8.34296 5.70857 5.71917C8.82176 2.72517 11.9866 1.33888 15.6827 0.0856173C16.7612 -0.280209 17.877 0.572219 17.7647 1.68633C17.1658 7.61656 23.0374 9.44832 29.9715 12.2253C30.8583 12.5806 32.2166 13.1783 33.2522 13.6404C33.8066 13.8881 33.7825 14.667 33.2139 14.8814C30.8164 15.7864 26.1221 17.4195 23.549 17.3862C20.4394 17.3451 18.5802 18.0067 19.4243 20.2174C19.6453 20.7951 19.0071 21.3377 18.4554 21.0419C14.0802 18.6972 16.3806 14.3843 24.7986 13.9047C22.3556 12.8677 20.0312 11.7842 18.1658 10.4723C15.9528 8.91621 14.3806 7.04332 13.9956 4.56655C11.3948 5.71479 9.33869 7.19122 7.77007 8.84182C5.869 10.8416 4.68183 13.0987 4.10875 15.3322C3.88326 16.21 3.75135 17.0799 3.70857 17.9227C3.66401 18.7918 3.71124 19.6363 3.84315 20.4371V20.4389C3.96971 21.2046 4.17559 21.9337 4.45456 22.6076C4.72907 23.2709 5.07399 23.8774 5.48308 24.4087C6.14975 25.276 7.00179 25.9446 8.00803 26.3332C8.95188 26.6973 10.0383 26.8181 11.2442 26.6273C13.2629 26.3087 15.8636 24.9075 18.7923 23.3287L18.8013 23.3243C19.4064 22.9988 20.0098 22.6872 20.6096 22.3931C27.3868 19.0683 34.5348 17.4107 41.115 18.5686C49.0856 19.9715 54.0624 24.8156 57.8066 31.1126C58.4403 32.1786 57.4358 33.4651 56.2202 33.15C49.9011 31.5143 47.5927 32.8017 39.869 36.712C27.7469 42.8496 5.02764 47.5879 1.78878 27.3248" fill="url(#paint0_linear_161_97)"/>
</g>
<path d="M72.588 29V28.79H73.47C73.666 28.79 73.841 28.762 73.995 28.706C74.163 28.65 74.296 28.531 74.394 28.349C74.492 28.167 74.541 27.894 74.541 27.53V15.497C74.541 15.119 74.492 14.839 74.394 14.657C74.296 14.475 74.163 14.356 73.995 14.3C73.841 14.244 73.666 14.216 73.47 14.216H72.588V14.006H79.35C80.68 14.006 81.765 14.153 82.605 14.447C83.459 14.741 84.089 15.182 84.495 15.77C84.901 16.344 85.104 17.051 85.104 17.891C85.104 18.633 84.957 19.263 84.663 19.781C84.383 20.299 84.005 20.726 83.529 21.062C83.067 21.398 82.556 21.664 81.996 21.86L84.327 25.829C84.719 26.501 85.041 27.04 85.293 27.446C85.559 27.838 85.783 28.132 85.965 28.328C86.147 28.51 86.308 28.636 86.448 28.706C86.588 28.762 86.735 28.79 86.889 28.79H86.931V29H86.238C85.608 29 85.055 28.972 84.579 28.916C84.103 28.86 83.683 28.762 83.319 28.622C82.955 28.482 82.626 28.279 82.332 28.013C82.052 27.733 81.793 27.376 81.555 26.942L78.846 21.986H77.859V27.53C77.859 27.894 77.908 28.167 78.006 28.349C78.104 28.531 78.237 28.65 78.405 28.706C78.573 28.762 78.748 28.79 78.93 28.79H79.833V29H72.588ZM79.035 21.776C79.637 21.776 80.12 21.65 80.484 21.398C80.862 21.132 81.135 20.719 81.303 20.159C81.485 19.599 81.576 18.878 81.576 17.996C81.576 17.114 81.485 16.4 81.303 15.854C81.121 15.294 80.841 14.881 80.463 14.615C80.085 14.349 79.595 14.216 78.993 14.216H77.859V21.776H79.035ZM87.2047 29V28.79H87.4567C87.6667 28.79 87.8837 28.762 88.1077 28.706C88.3457 28.636 88.5417 28.503 88.6957 28.307C88.8637 28.111 88.9477 27.817 88.9477 27.425V19.235C88.9477 18.857 88.8637 18.577 88.6957 18.395C88.5277 18.213 88.3247 18.094 88.0867 18.038C87.8627 17.982 87.6527 17.954 87.4567 17.954H87.2047V17.744H92.1397V27.425C92.1397 27.817 92.2167 28.111 92.3707 28.307C92.5387 28.503 92.7417 28.636 92.9797 28.706C93.2177 28.762 93.4347 28.79 93.6307 28.79H93.8827V29H87.2047ZM90.4387 15.854C90.0327 15.854 89.6827 15.735 89.3887 15.497C89.1087 15.245 88.9687 14.86 88.9687 14.342C88.9687 13.81 89.1157 13.425 89.4097 13.187C89.7037 12.949 90.0537 12.83 90.4597 12.83C90.8517 12.83 91.1947 12.949 91.4887 13.187C91.7827 13.425 91.9297 13.81 91.9297 14.342C91.9297 14.86 91.7827 15.245 91.4887 15.497C91.1947 15.735 90.8447 15.854 90.4387 15.854ZM94.4615 29V28.79H94.7555C95.0635 28.79 95.3295 28.755 95.5535 28.685C95.7915 28.601 96.0365 28.44 96.2885 28.202C96.5405 27.964 96.8555 27.607 97.2335 27.131L99.9215 23.75L96.4565 19.067C96.2745 18.815 96.0855 18.612 95.8895 18.458C95.7075 18.29 95.5185 18.164 95.3225 18.08C95.1405 17.996 94.9375 17.954 94.7135 17.954H94.6715V17.744H101.454V17.954H100.971C100.495 17.954 100.173 18.017 100.005 18.143C99.8375 18.255 99.7535 18.395 99.7535 18.563C99.7535 18.703 99.7815 18.85 99.8375 19.004C99.9075 19.144 100.019 19.319 100.173 19.529L102.168 22.259L104.247 19.76C104.401 19.564 104.527 19.368 104.625 19.172C104.723 18.962 104.772 18.766 104.772 18.584C104.772 18.332 104.674 18.164 104.478 18.08C104.282 17.996 104.023 17.954 103.701 17.954H102.882V17.744H107.208V17.954H107.019C106.753 17.954 106.515 17.989 106.305 18.059C106.095 18.129 105.885 18.262 105.675 18.458C105.465 18.654 105.206 18.934 104.898 19.298L102.315 22.448L106.158 27.677C106.354 27.943 106.543 28.16 106.725 28.328C106.907 28.482 107.082 28.601 107.25 28.685C107.418 28.755 107.579 28.79 107.733 28.79H107.796V29H100.971V28.79H101.475C101.895 28.79 102.217 28.734 102.441 28.622C102.665 28.496 102.777 28.321 102.777 28.097C102.777 27.943 102.735 27.775 102.651 27.593C102.581 27.397 102.385 27.082 102.063 26.648L100.068 23.939L97.6325 26.984C97.4785 27.18 97.3525 27.376 97.2545 27.572C97.1565 27.768 97.1075 27.964 97.1075 28.16C97.1075 28.412 97.2055 28.58 97.4015 28.664C97.5975 28.748 97.8565 28.79 98.1785 28.79H98.8925V29H94.4615ZM114.338 29.21C112.518 29.21 111.139 28.706 110.201 27.698C109.263 26.676 108.794 25.255 108.794 23.435C108.794 21.461 109.249 19.977 110.159 18.983C111.069 17.975 112.35 17.471 114.002 17.471C115.528 17.471 116.725 17.898 117.593 18.752C118.475 19.606 118.916 20.866 118.916 22.532V23.036H112.028C112.028 24.45 112.119 25.598 112.301 26.48C112.497 27.348 112.798 27.985 113.204 28.391C113.624 28.783 114.163 28.979 114.821 28.979C115.311 28.979 115.752 28.874 116.144 28.664C116.55 28.454 116.886 28.118 117.152 27.656C117.432 27.194 117.614 26.578 117.698 25.808C117.978 25.864 118.174 25.983 118.286 26.165C118.412 26.347 118.475 26.557 118.475 26.795C118.475 27.187 118.321 27.572 118.013 27.95C117.705 28.314 117.243 28.615 116.627 28.853C116.025 29.091 115.262 29.21 114.338 29.21ZM115.724 22.826C115.724 21.552 115.675 20.544 115.577 19.802C115.479 19.046 115.304 18.507 115.052 18.185C114.8 17.849 114.45 17.681 114.002 17.681C113.554 17.681 113.183 17.849 112.889 18.185C112.595 18.507 112.378 19.046 112.238 19.802C112.112 20.544 112.042 21.552 112.028 22.826H115.724ZM120.224 29V28.79H120.413C120.623 28.79 120.84 28.762 121.064 28.706C121.302 28.636 121.498 28.503 121.652 28.307C121.82 28.111 121.904 27.817 121.904 27.425V19.235C121.904 18.857 121.82 18.577 121.652 18.395C121.484 18.213 121.281 18.094 121.043 18.038C120.819 17.982 120.609 17.954 120.413 17.954H120.329V17.744H125.096V19.55H125.138C125.292 19.088 125.495 18.71 125.747 18.416C125.999 18.108 126.314 17.877 126.692 17.723C127.084 17.569 127.539 17.492 128.057 17.492C128.841 17.492 129.436 17.653 129.842 17.975C130.262 18.297 130.472 18.745 130.472 19.319C130.472 19.921 130.234 20.39 129.758 20.726C129.282 21.062 128.631 21.23 127.805 21.23C127.805 20.516 127.756 19.956 127.658 19.55C127.56 19.144 127.42 18.857 127.238 18.689C127.07 18.521 126.853 18.437 126.587 18.437C126.377 18.437 126.181 18.493 125.999 18.605C125.817 18.717 125.656 18.906 125.516 19.172C125.39 19.424 125.285 19.767 125.201 20.201C125.131 20.621 125.096 21.153 125.096 21.797V27.425C125.096 27.817 125.173 28.111 125.327 28.307C125.495 28.503 125.698 28.636 125.936 28.706C126.174 28.762 126.391 28.79 126.587 28.79H127.238V29H120.224ZM135.597 29V28.79H136.458C136.724 28.79 136.948 28.741 137.13 28.643C137.312 28.545 137.473 28.384 137.613 28.16C137.767 27.936 137.914 27.635 138.054 27.257L142.905 14.006H144.963L149.667 27.278C149.807 27.656 149.947 27.957 150.087 28.181C150.241 28.405 150.409 28.566 150.591 28.664C150.773 28.748 150.997 28.79 151.263 28.79H151.326V29H144.396V28.79H145.53C145.852 28.79 146.09 28.741 146.244 28.643C146.412 28.531 146.496 28.356 146.496 28.118C146.496 28.034 146.482 27.943 146.454 27.845C146.44 27.733 146.419 27.614 146.391 27.488C146.363 27.348 146.321 27.201 146.265 27.047L145.068 23.519H139.65L138.453 26.774C138.383 26.956 138.32 27.131 138.264 27.299C138.222 27.453 138.187 27.593 138.159 27.719C138.131 27.845 138.117 27.964 138.117 28.076C138.117 28.342 138.201 28.531 138.369 28.643C138.537 28.741 138.796 28.79 139.146 28.79H140.637V29H135.597ZM139.734 23.309H145.005L143.703 19.382C143.591 19.046 143.458 18.647 143.304 18.185C143.164 17.709 143.024 17.233 142.884 16.757C142.758 16.267 142.653 15.847 142.569 15.497C142.485 15.749 142.387 16.036 142.275 16.358C142.163 16.68 142.044 17.016 141.918 17.366C141.792 17.716 141.666 18.052 141.54 18.374C141.428 18.696 141.323 18.983 141.225 19.235L139.734 23.309ZM155.87 34.04C154.134 34.04 152.881 33.823 152.111 33.389C151.355 32.955 150.977 32.353 150.977 31.583C150.977 31.163 151.096 30.799 151.334 30.491C151.572 30.183 151.957 29.931 152.489 29.735C153.021 29.553 153.735 29.441 154.631 29.399C153.875 29.273 153.287 29 152.867 28.58C152.447 28.16 152.237 27.663 152.237 27.089C152.237 26.529 152.433 26.06 152.825 25.682C153.217 25.304 153.763 24.996 154.463 24.758C153.693 24.52 153.084 24.114 152.636 23.54C152.202 22.952 151.985 22.224 151.985 21.356C151.985 20.124 152.342 19.172 153.056 18.5C153.77 17.814 154.876 17.471 156.374 17.471C156.92 17.471 157.424 17.548 157.886 17.702C158.362 17.842 158.775 18.052 159.125 18.332C159.377 17.996 159.608 17.73 159.818 17.534C160.028 17.324 160.245 17.177 160.469 17.093C160.693 16.995 160.931 16.946 161.183 16.946C161.631 16.946 161.974 17.058 162.212 17.282C162.45 17.492 162.569 17.779 162.569 18.143C162.569 18.423 162.464 18.696 162.254 18.962C162.044 19.214 161.652 19.34 161.078 19.34C161.078 18.948 160.987 18.647 160.805 18.437C160.623 18.213 160.385 18.101 160.091 18.101C159.937 18.101 159.79 18.136 159.65 18.206C159.524 18.262 159.405 18.346 159.293 18.458C159.713 18.808 160.035 19.228 160.259 19.718C160.497 20.208 160.616 20.754 160.616 21.356C160.616 22.42 160.273 23.302 159.587 24.002C158.901 24.688 157.83 25.031 156.374 25.031C156.066 25.031 155.772 25.017 155.492 24.989C155.212 24.947 154.946 24.891 154.694 24.821C154.428 24.961 154.246 25.108 154.148 25.262C154.05 25.416 154.001 25.591 154.001 25.787C154.001 26.095 154.113 26.326 154.337 26.48C154.561 26.634 154.911 26.711 155.387 26.711H157.928C158.866 26.711 159.629 26.837 160.217 27.089C160.805 27.341 161.239 27.712 161.519 28.202C161.813 28.678 161.96 29.252 161.96 29.924C161.96 31.212 161.463 32.22 160.469 32.948C159.475 33.676 157.942 34.04 155.87 34.04ZM156.122 33.83C156.822 33.83 157.438 33.739 157.97 33.557C158.502 33.389 158.915 33.116 159.209 32.738C159.503 32.374 159.65 31.891 159.65 31.289C159.65 30.715 159.496 30.267 159.188 29.945C158.894 29.637 158.411 29.483 157.739 29.483H155.597C155.093 29.483 154.68 29.56 154.358 29.714C154.05 29.882 153.819 30.12 153.665 30.428C153.511 30.736 153.434 31.114 153.434 31.562C153.434 32.08 153.532 32.507 153.728 32.843C153.938 33.179 154.239 33.424 154.631 33.578C155.037 33.746 155.534 33.83 156.122 33.83ZM156.311 24.821C156.661 24.821 156.941 24.709 157.151 24.485C157.361 24.261 157.508 23.897 157.592 23.393C157.69 22.889 157.739 22.21 157.739 21.356C157.739 20.446 157.69 19.725 157.592 19.193C157.508 18.661 157.361 18.276 157.151 18.038C156.941 17.8 156.654 17.681 156.29 17.681C155.94 17.681 155.653 17.8 155.429 18.038C155.219 18.276 155.065 18.668 154.967 19.214C154.883 19.746 154.841 20.474 154.841 21.398C154.841 22.238 154.883 22.91 154.967 23.414C155.065 23.918 155.219 24.282 155.429 24.506C155.653 24.716 155.947 24.821 156.311 24.821ZM169.196 29.21C167.376 29.21 165.997 28.706 165.059 27.698C164.121 26.676 163.652 25.255 163.652 23.435C163.652 21.461 164.107 19.977 165.017 18.983C165.927 17.975 167.208 17.471 168.86 17.471C170.386 17.471 171.583 17.898 172.451 18.752C173.333 19.606 173.774 20.866 173.774 22.532V23.036H166.886C166.886 24.45 166.977 25.598 167.159 26.48C167.355 27.348 167.656 27.985 168.062 28.391C168.482 28.783 169.021 28.979 169.679 28.979C170.169 28.979 170.61 28.874 171.002 28.664C171.408 28.454 171.744 28.118 172.01 27.656C172.29 27.194 172.472 26.578 172.556 25.808C172.836 25.864 173.032 25.983 173.144 26.165C173.27 26.347 173.333 26.557 173.333 26.795C173.333 27.187 173.179 27.572 172.871 27.95C172.563 28.314 172.101 28.615 171.485 28.853C170.883 29.091 170.12 29.21 169.196 29.21ZM170.582 22.826C170.582 21.552 170.533 20.544 170.435 19.802C170.337 19.046 170.162 18.507 169.91 18.185C169.658 17.849 169.308 17.681 168.86 17.681C168.412 17.681 168.041 17.849 167.747 18.185C167.453 18.507 167.236 19.046 167.096 19.802C166.97 20.544 166.9 21.552 166.886 22.826H170.582ZM175.019 29V28.79H175.271C175.481 28.79 175.698 28.762 175.922 28.706C176.16 28.636 176.356 28.503 176.51 28.307C176.678 28.111 176.762 27.817 176.762 27.425V19.235C176.762 18.857 176.678 18.577 176.51 18.395C176.342 18.213 176.139 18.094 175.901 18.038C175.677 17.982 175.467 17.954 175.271 17.954H175.019V17.744H179.954V19.655H179.996C180.164 19.025 180.402 18.556 180.71 18.248C181.018 17.94 181.375 17.737 181.781 17.639C182.187 17.527 182.593 17.471 182.999 17.471C184.231 17.471 185.148 17.793 185.75 18.437C186.352 19.081 186.653 20.11 186.653 21.524V27.299C186.653 27.733 186.702 28.055 186.8 28.265C186.912 28.475 187.073 28.615 187.283 28.685C187.493 28.755 187.752 28.79 188.06 28.79H188.123V29H183.461V20.831C183.461 19.921 183.342 19.242 183.104 18.794C182.866 18.332 182.46 18.101 181.886 18.101C181.396 18.101 181.004 18.269 180.71 18.605C180.43 18.941 180.234 19.41 180.122 20.012C180.01 20.614 179.954 21.307 179.954 22.091V27.425C179.954 27.817 180.031 28.111 180.185 28.307C180.353 28.503 180.556 28.636 180.794 28.706C181.032 28.762 181.249 28.79 181.445 28.79H181.697V29H175.019ZM194.885 29.21C193.849 29.21 192.932 29.028 192.134 28.664C191.35 28.286 190.741 27.677 190.307 26.837C189.873 25.983 189.656 24.842 189.656 23.414C189.656 21.902 189.88 20.719 190.328 19.865C190.776 18.997 191.392 18.381 192.176 18.017C192.974 17.653 193.884 17.471 194.906 17.471C195.76 17.471 196.488 17.569 197.09 17.765C197.692 17.947 198.154 18.213 198.476 18.563C198.798 18.899 198.959 19.291 198.959 19.739C198.959 20.005 198.882 20.271 198.728 20.537C198.588 20.803 198.322 21.027 197.93 21.209C197.538 21.377 196.978 21.461 196.25 21.461C196.25 20.495 196.208 19.739 196.124 19.193C196.04 18.647 195.886 18.262 195.662 18.038C195.452 17.8 195.158 17.681 194.78 17.681C194.318 17.681 193.947 17.856 193.667 18.206C193.387 18.556 193.184 19.144 193.058 19.97C192.946 20.796 192.89 21.937 192.89 23.393C192.89 24.737 192.974 25.822 193.142 26.648C193.324 27.46 193.604 28.055 193.982 28.433C194.374 28.797 194.878 28.979 195.494 28.979C195.984 28.979 196.425 28.881 196.817 28.685C197.209 28.475 197.538 28.139 197.804 27.677C198.07 27.215 198.245 26.599 198.329 25.829C198.553 25.899 198.728 26.032 198.854 26.228C198.98 26.424 199.043 26.648 199.043 26.9C199.043 27.25 198.896 27.607 198.602 27.971C198.322 28.321 197.874 28.615 197.258 28.853C196.642 29.091 195.851 29.21 194.885 29.21ZM200.394 33.83C201.346 33.83 202.123 33.746 202.725 33.578C203.341 33.424 203.838 33.179 204.216 32.843C204.594 32.521 204.916 32.101 205.182 31.583C205.448 31.079 205.728 30.477 206.022 29.777L200.919 18.962C200.807 18.71 200.695 18.514 200.583 18.374C200.485 18.22 200.38 18.115 200.268 18.059C200.156 17.989 200.023 17.954 199.869 17.954H199.743V17.744H205.77L205.791 17.954H205.371C204.965 17.954 204.664 18.003 204.468 18.101C204.272 18.199 204.174 18.367 204.174 18.605C204.174 18.731 204.195 18.871 204.237 19.025C204.279 19.179 204.342 19.354 204.426 19.55L206.484 24.275C206.61 24.541 206.715 24.772 206.799 24.968C206.883 25.164 206.953 25.332 207.009 25.472C207.065 25.598 207.114 25.724 207.156 25.85C207.212 25.962 207.268 26.081 207.324 26.207C207.436 25.913 207.541 25.64 207.639 25.388C207.737 25.122 207.821 24.884 207.891 24.674L209.676 19.844C209.76 19.62 209.823 19.424 209.865 19.256C209.907 19.074 209.928 18.913 209.928 18.773C209.928 18.465 209.816 18.255 209.592 18.143C209.382 18.017 209.032 17.954 208.542 17.954H207.66V17.744H211.902V17.954H211.86C211.552 17.954 211.286 18.003 211.062 18.101C210.838 18.199 210.642 18.367 210.474 18.605C210.306 18.843 210.145 19.172 209.991 19.592L206.505 29.084C206.141 30.092 205.791 30.918 205.455 31.562C205.119 32.206 204.741 32.71 204.321 33.074C203.901 33.438 203.383 33.69 202.767 33.83C202.151 33.97 201.381 34.04 200.457 34.04H200.394V33.83Z" fill="white"/>
<defs>
<linearGradient id="paint0_linear_161_97" x1="51.5001" y1="6.00001" x2="-5.49994" y2="39.5" gradientUnits="userSpaceOnUse">
<stop stop-color="#9CA7BC"/>
<stop offset="0.184641" stop-color="#E0E4EA"/>
<stop offset="0.372152" stop-color="#B2BBCB"/>
<stop offset="0.564872" stop-color="#E9EBF0"/>
<stop offset="0.788843" stop-color="#A3AEC1"/>
<stop offset="1" stop-color="white"/>
</linearGradient>
<clipPath id="clip0_161_97">
<rect width="58" height="42" fill="white"/>
</clipPath>
</defs>
</svg>
