<svg width="69" height="50" viewBox="0 0 69 50" fill="none" xmlns="http://www.w3.org/2000/svg">
<path d="M2.10437 32.5317C11.6588 49.7228 29.5129 47.7849 44.977 39.8729C50.0782 37.2629 55.7401 33.7341 61.6666 34.2467C55.2476 27.6214 48.5598 25.5345 42.27 25.7491C35.5738 25.9773 29.2861 28.807 24.2427 31.5545C22.361 32.5797 20.5843 33.5465 18.8811 34.3259C17.1559 35.1146 15.5125 35.7064 13.9259 35.9595C11.6609 36.3211 9.60596 36.0846 7.80827 35.3792C5.88142 34.6239 4.25489 33.3319 2.98432 31.6639C2.28813 30.7491 1.70325 29.7176 1.24018 28.5997C0.779205 27.4859 0.441088 26.2846 0.235277 25.026C0.0315666 23.7789 -0.0419372 22.4755 0.0231662 21.144C0.0872195 19.8458 0.28148 18.5236 0.616447 17.2056C1.53734 13.583 3.51145 9.93225 6.72566 6.80869C10.3935 3.2444 14.1222 1.59406 18.4768 0.102081C19.7474 -0.333427 21.0621 0.681368 20.9297 2.00769C20.2241 9.06749 27.1419 11.2482 35.3113 14.5541C36.3561 14.9771 37.9564 15.6887 39.1765 16.2388C39.8297 16.5336 39.8013 17.4609 39.1314 17.7162C36.3067 18.7935 30.7761 20.7376 27.7446 20.698C24.081 20.6491 21.8905 21.4367 22.8849 24.0685C23.1454 24.7562 22.3935 25.4021 21.7435 25.05C16.5888 22.2588 19.299 17.1244 29.2168 16.5534C26.3386 15.3188 23.6 14.0289 21.4023 12.4672C18.795 10.6147 16.9427 8.38506 16.4891 5.43652C13.425 6.80348 11.0025 8.56113 9.15444 10.5261C6.91467 12.9068 5.516 15.5939 4.84082 18.2527C4.57515 19.2977 4.41974 20.3334 4.36934 21.3367C4.31684 22.3713 4.37249 23.3767 4.5279 24.33V24.3321C4.67701 25.2438 4.91957 26.1117 5.24824 26.9139C5.57165 27.7037 5.97802 28.4257 6.46 29.0581C7.24544 30.0906 8.24929 30.8866 9.4348 31.3492C10.5468 31.7826 11.8268 31.9264 13.2476 31.6993C15.6259 31.32 18.69 29.652 22.1405 27.7724L22.151 27.7672C22.8639 27.3796 23.5748 27.0087 24.2815 26.6587C32.2661 22.7005 40.6876 20.7272 48.4401 22.1056C57.8308 23.7758 63.6943 29.5426 68.1055 37.0389C68.8521 38.308 67.6687 39.8395 66.2364 39.4644C58.7915 37.5172 56.0719 39.0498 46.9721 43.7049C32.6904 51.0116 5.92342 56.6524 2.10752 32.5297" fill="#E95655"/>
</svg>
