<svg width="27" height="20" viewBox="0 0 27 20" fill="none" xmlns="http://www.w3.org/2000/svg">
<path d="M0.831528 13.0125C4.6067 19.8889 11.6612 19.1137 17.7715 15.9489C19.787 14.9049 22.0242 13.4934 24.3659 13.6984C21.8296 11.0483 19.1871 10.2135 16.7018 10.2994C14.056 10.3907 11.5716 11.5226 9.57885 12.6215C8.83535 13.0316 8.13334 13.4184 7.46038 13.7301C6.7787 14.0456 6.12938 14.2823 5.50247 14.3836C4.60753 14.5282 3.79557 14.4336 3.08526 14.1514C2.32392 13.8493 1.68124 13.3325 1.17921 12.6653C0.904135 12.2994 0.673036 11.8868 0.490065 11.4396C0.307924 10.9941 0.174327 10.5136 0.0930065 10.0102C0.012516 9.51131 -0.016527 8.98995 0.00919679 8.45734C0.0345057 7.93807 0.111262 7.4092 0.243615 6.88201C0.607482 5.43296 1.38749 3.97266 2.6575 2.72323C4.10674 1.29752 5.58005 0.637378 7.30064 0.0405867C7.80267 -0.133616 8.32212 0.272302 8.26985 0.802829C7.99103 3.62675 10.7244 4.49902 13.9523 5.82137C14.3651 5.99058 14.9974 6.27522 15.4796 6.49527C15.7376 6.61321 15.7264 6.98412 15.4617 7.08622C14.3456 7.51714 12.1604 8.29481 10.9625 8.27897C9.51496 8.25938 8.64948 8.57445 9.04239 9.62717C9.14528 9.90222 8.84822 10.1606 8.59139 10.0197C6.55465 8.90327 7.62551 6.84951 11.5442 6.62112C10.407 6.12727 9.32494 5.61133 8.45655 4.98662C7.42636 4.24563 6.69447 3.35378 6.51524 2.17436C5.30456 2.72114 4.34739 3.42421 3.61716 4.21021C2.73218 5.16249 2.17954 6.23729 1.91276 7.30085C1.80779 7.71885 1.74638 8.13311 1.72647 8.53444C1.70572 8.94828 1.72771 9.35044 1.78912 9.73177V9.73261C1.84803 10.0973 1.94387 10.4444 2.07374 10.7653C2.20153 11.0812 2.36209 11.37 2.55253 11.623C2.86288 12.036 3.25952 12.3544 3.72794 12.5394C4.16732 12.7128 4.67308 12.7703 5.23444 12.6795C6.17419 12.5278 7.38487 11.8605 8.74823 11.1087L8.75237 11.1066C9.03409 10.9516 9.31498 10.8032 9.5942 10.6632C12.7491 9.07997 16.0766 8.29064 19.1398 8.842C22.8502 9.51006 25.167 11.8168 26.91 14.8153C27.205 15.3229 26.7374 15.9356 26.1715 15.7855C23.2299 15.0066 22.1553 15.6197 18.5598 17.4817C12.9167 20.4044 2.34052 22.6607 0.832772 13.0116" fill="url(#paint0_linear_134_90)"/>
<defs>
<linearGradient id="paint0_linear_134_90" x1="23.9742" y1="2.85696" x2="-2.86569" y2="18.2777" gradientUnits="userSpaceOnUse">
<stop stop-color="#9CA7BC"/>
<stop offset="0.184641" stop-color="#E0E4EA"/>
<stop offset="0.372152" stop-color="#B2BBCB"/>
<stop offset="0.564872" stop-color="#E9EBF0"/>
<stop offset="0.788843" stop-color="#A3AEC1"/>
<stop offset="1" stop-color="white"/>
</linearGradient>
</defs>
</svg>
